<?xml version="1.0" standalone="no"?><!DOCTYPE svg PUBLIC "-//W3C//DTD SVG 1.1//EN" "http://www.w3.org/Graphics/SVG/1.1/DTD/svg11.dtd"><svg t="1586000142958" class="icon" viewBox="0 0 1024 1024" version="1.1" xmlns="http://www.w3.org/2000/svg" p-id="3020" xmlns:xlink="http://www.w3.org/1999/xlink" width="200" height="200"><defs><style type="text/css"></style></defs><path d="M876.230889 364.230889c-6.390016-41.535101-38.340094-70.290172-79.875195-70.290171h-19.170047V146.970359c0-76.680187-57.51014-137.385335-134.190327-143.775351 31.950078 22.365055 57.51014 54.315133 67.095164 92.655226 9.585023 12.780031 12.780031 31.950078 12.780031 47.925117v146.970359h-38.340094V143.775351c0-79.875195-63.900156-143.775351-143.775351-143.775351h-159.75039c-79.875195 0-143.775351 63.900156-143.775351 143.775351v146.970359h-19.170047c-38.340094 0-73.485179 31.950078-76.680187 70.290171L83.868955 953.709828C80.673947 992.049922 109.429017 1024 147.769111 1024H863.450858c38.340094 0 67.095164-31.950078 63.900156-70.290172 3.195008 0-51.120125-589.478939-51.120125-589.478939zM291.544462 541.553822c-31.950078 0-57.51014-25.560062-57.510141-57.51014s25.560062-57.51014 57.510141-57.510141 57.51014 25.560062 57.51014 57.510141-25.560062 57.51014-57.51014 57.51014z m345.060842-247.613104H384.199688V146.970359c0-22.365055 9.585023-44.730109 22.365055-60.705148H384.199688c-19.170047 0-38.340094 9.585023-47.925117 25.560062-3.195008 12.780031-3.195008 22.365055-3.195008 35.145086v146.970359h-38.340093V146.970359c0-51.120125 41.535101-92.655226 92.655226-92.655226h159.75039c51.120125 0 92.655226 41.535101 92.655226 92.655226v146.970359h-3.195008z m92.655226 247.613104c-31.950078 0-57.51014-25.560062-57.51014-57.51014s25.560062-57.51014 57.51014-57.510141 57.51014 25.560062 57.510141 57.510141-25.560062 57.51014-57.510141 57.51014z" fill="#888888" p-id="3021"></path></svg>